# xmcd
#
# Track frame offsets:
#	150
#	18873
#	40948
#	67866
#	92190
#	110384
#	135419
#	150976
#	166262
#
# Disc length: 2472 seconds
#
# Revision: 1
# Processed by: cddbd v1.5.2PL0 Copyright (c) Steve Scherf et al.
# Submitted via: audiograbber 1.83.01
#
DISCID=5f09a609
DTITLE=Jean Carn - Jean Carn
DYEAR=1976
DGENRE=Soul
TTITLE0=Free Love
TTITLE1=No Laughing Matter
TTITLE2=I'm in Love Once Again
TTITLE3=Don't You Know Love When You See It
TTITLE4=Where Did You Ever Go
TTITLE5=You Are All I Need
TTITLE6=If You Wanna Go Back
TTITLE7=You Got a Problem
TTITLE8=Time Waits for No One
EXTD=
EXTT0=
EXTT1=
EXTT2=
EXTT3=
EXTT4=
EXTT5=
EXTT6=
EXTT7=
EXTT8=
PLAYORDER=
